<?xml version="1.0" standalone="no"?>
<!DOCTYPE svg PUBLIC "-//W3C//DTD SVG 20010904//EN"
 "http://www.w3.org/TR/2001/REC-SVG-20010904/DTD/svg10.dtd">
<svg version="1.0" xmlns="http://www.w3.org/2000/svg"
 width="354.000000pt" height="354.000000pt" viewBox="0 0 354.000000 354.000000"
 preserveAspectRatio="xMidYMid meet">
<metadata>
Created by potrace 1.14, written by Peter Selinger 2001-2017
</metadata>
<g transform="translate(0.000000,354.000000) scale(0.100000,-0.100000)"
fill="#000000" stroke="none">
<path d="M1635 3534 c-319 -49 -566 -172 -793 -396 -154 -151 -251 -291 -353
-503 -316 -662 -231 -1511 206 -2070 223 -284 510 -471 835 -541 118 -26 362
-26 480 0 188 41 382 129 532 241 46 34 131 112 189 172 679 703 679 1963 0
2666 -211 218 -430 346 -701 408 -83 19 -327 33 -395 23z"/>
</g>
</svg>
